<svg width="216" height="65" viewBox="0 0 216 65" fill="none" xmlns="http://www.w3.org/2000/svg">
<path d="M43.52 51.2C43.52 55.52 42.08 58.7467 39.2 60.88C37.8133 61.8933 36.3733 62.6933 34.88 63.28C33.44 63.8133 32.0267 64.08 30.64 64.08H13.2C11.8133 64.08 10.3733 63.8133 8.88 63.28C7.44 62.6933 6.02667 61.8933 4.64 60.88C3.25333 59.8133 2.18667 58.5067 1.44 56.96C0.693334 55.36 0.32 53.44 0.32 51.2V3.92C0.32 1.36 1.89333 0.079998 5.04 0.079998C8.24 0.079998 9.84 1.36 9.84 3.92V50.56C9.84 51.9467 10.24 53.2 11.04 54.32C11.84 55.44 13.2267 56 15.2 56H28.64C30.6133 56 32 55.44 32.8 54.32C33.6 53.2 34 51.9467 34 50.56V3.92C34 1.36 35.5733 0.079998 38.72 0.079998C41.92 0.079998 43.52 1.36 43.52 3.92V51.2ZM104.831 0.079998C106.537 0.079998 108.404 0.479998 110.431 1.28C112.297 2.02666 113.231 3.44 113.231 5.52V60.64C113.231 63.2 111.657 64.48 108.511 64.48C105.364 64.48 103.791 63.2 103.791 60.64V19.52L101.471 19.28L98.2706 29.68L88.6706 61.68C88.084 63.5467 86.644 64.4533 84.3506 64.4C83.3373 64.3467 82.4573 64.08 81.7106 63.6C80.964 63.12 80.4573 62.4267 80.1906 61.52L74.4306 42.88C73.2573 39.2 72.084 35.4667 70.9106 31.68C69.7373 27.84 68.4573 23.6 67.0706 18.96L64.7506 19.28V60.64C64.7506 63.2 63.1773 64.48 60.0306 64.48C56.884 64.48 55.3106 63.2 55.3106 60.64V5.52C55.3106 3.49333 56.244 2.08 58.1106 1.28C60.084 0.479998 61.9773 0.106664 63.7906 0.159997C64.5906 0.159997 65.4173 0.266664 66.2706 0.479998C67.124 0.693331 67.924 1.01333 68.6706 1.43999C69.4173 1.81333 70.084 2.32 70.6706 2.96C71.2573 3.54666 71.7106 4.24 72.0306 5.04L84.5906 47.84C85.4973 44.6933 86.4573 41.28 87.4706 37.6C88.484 33.92 89.524 30.1867 90.5906 26.4C91.6573 22.6133 92.6973 18.88 93.7106 15.2C94.7773 11.4667 95.764 8 96.6706 4.8C96.9906 4.05333 97.444 3.38667 98.0306 2.8C98.6173 2.21333 99.284 1.73333 100.031 1.36C100.777 0.933331 101.551 0.613332 102.351 0.399999C103.204 0.186665 104.031 0.079998 104.831 0.079998ZM134.061 60.64C134.061 63.2 132.487 64.48 129.341 64.48C126.194 64.48 124.621 63.2 124.621 60.64V5.28C124.621 4.05333 124.967 2.96 125.661 2C126.354 0.986664 127.687 0.479998 129.661 0.479998H156.861C158.781 0.479998 159.794 1.81333 159.901 4.48C160.007 7.2 158.994 8.56 156.861 8.56H134.061V60.64ZM154.541 30.96C154.541 31.8667 154.354 32.7467 153.981 33.6C153.661 34.4 153.181 35.0933 152.541 35.68C151.954 36.2667 151.261 36.7467 150.461 37.12C149.661 37.44 148.781 37.6 147.821 37.6C146.007 37.6 144.461 36.96 143.181 35.68C141.901 34.4 141.261 32.8267 141.261 30.96C141.261 29.0933 141.901 27.52 143.181 26.24C144.461 24.96 146.007 24.32 147.821 24.32C148.781 24.32 149.661 24.5067 150.461 24.88C151.261 25.2 151.954 25.68 152.541 26.32C153.181 26.9067 153.661 27.6 153.981 28.4C154.354 29.2 154.541 30.0533 154.541 30.96ZM191.243 37.68H185.083C184.176 37.68 183.456 37.3333 182.923 36.64C182.443 35.8933 182.203 34.9067 182.203 33.68C182.203 30.96 183.323 29.6 185.563 29.6H194.923C196.896 29.6 198.283 29.04 199.083 27.92C199.883 26.8 200.283 25.5733 200.283 24.24V13.92C200.283 12.5867 199.883 11.36 199.083 10.24C198.283 9.12 196.896 8.56 194.923 8.56H178.043V60.72C178.043 63.28 176.47 64.56 173.323 64.56C170.176 64.56 168.603 63.28 168.603 60.72V5.28C168.603 3.36 169.083 2.08 170.043 1.43999C171.056 0.799997 172.256 0.479998 173.643 0.479998H196.923C198.31 0.479998 199.75 0.77333 201.243 1.36C202.736 1.94666 204.176 2.69333 205.563 3.6H205.483C206.87 4.61333 207.936 5.94666 208.683 7.6C209.43 9.2 209.803 11.0667 209.803 13.2V24.88C209.803 29.2 208.363 32.4267 205.483 34.56C204.896 34.9867 204.256 35.3867 203.563 35.76C202.923 36.1333 202.256 36.5067 201.563 36.88L214.363 58C214.523 58.2667 214.683 58.6133 214.843 59.04C215.003 59.4667 215.083 59.8133 215.083 60.08C215.083 61.36 214.176 62.5867 212.363 63.76V63.68C211.136 64.4267 210.096 64.8 209.243 64.8C208.016 64.8 207.03 64.1867 206.283 62.96L206.363 63.04L191.243 37.68Z" fill="#7F7A63"/>
</svg>
