<svg width="70" height="70" viewBox="0 0 70 70" fill="none" xmlns="http://www.w3.org/2000/svg">
<g style="mix-blend-mode:color-burn">
<path d="M35.0007 5.8335C18.8861 5.8335 5.83399 18.8856 5.83399 35.0002C5.83068 41.1231 7.75553 47.0915 11.3355 52.0588C14.9154 57.0261 19.9686 60.74 25.7782 62.6735C27.2365 62.9272 27.7819 62.0522 27.7819 61.2852C27.7819 60.5939 27.744 58.2985 27.744 55.8543C20.4173 57.2047 18.5215 54.0693 17.9382 52.4272C17.6086 51.5872 16.1882 49.0002 14.9486 48.306C13.9277 47.7606 12.4694 46.4102 14.9107 46.3752C17.209 46.3372 18.8482 48.4897 19.3965 49.3647C22.0215 53.7747 26.2157 52.5352 27.8898 51.771C28.1465 49.8752 28.9107 48.6006 29.7507 47.8714C23.2611 47.1422 16.4798 44.6252 16.4798 33.4689C16.4798 30.2956 17.6086 27.6735 19.4694 25.6289C19.1777 24.8997 18.1569 21.9102 19.7611 17.8997C19.7611 17.8997 22.2023 17.1356 27.7819 20.8922C30.1563 20.2333 32.6095 19.9016 35.0736 19.9064C37.5527 19.9064 40.0319 20.2331 42.3652 20.8893C47.9419 17.0977 50.3861 17.9027 50.3861 17.9027C51.9902 21.9131 50.9694 24.9027 50.6777 25.6318C52.5357 27.6735 53.6673 30.2606 53.6673 33.4689C53.6673 44.6631 46.8511 47.1422 40.3615 47.8714C41.4173 48.7814 42.3302 50.5314 42.3302 53.2673C42.3302 57.1668 42.2923 60.3022 42.2923 61.2881C42.2923 62.0522 42.8407 62.9622 44.299 62.6706C50.0887 60.7158 55.1196 56.9947 58.6837 52.031C62.2478 47.0673 64.1657 41.1109 64.1673 35.0002C64.1673 18.8856 51.1152 5.8335 35.0007 5.8335Z" fill="#7F7A63"/>
</g>
</svg>
