<svg width="70" height="70" viewBox="0 0 70 70" fill="none" xmlns="http://www.w3.org/2000/svg">
<g style="mix-blend-mode:color-burn">
<path d="M35.0007 26.2502C32.68 26.2502 30.4544 27.172 28.8135 28.813C27.1725 30.4539 26.2507 32.6795 26.2507 35.0002C26.2507 37.3208 27.1725 39.5464 28.8135 41.1873C30.4544 42.8283 32.68 43.7502 35.0007 43.7502C37.3213 43.7502 39.5469 42.8283 41.1878 41.1873C42.8288 39.5464 43.7507 37.3208 43.7507 35.0002C43.7507 32.6795 42.8288 30.4539 41.1878 28.813C39.5469 27.172 37.3213 26.2502 35.0007 26.2502ZM35.0007 20.4168C38.8684 20.4168 42.5777 21.9533 45.3126 24.6882C48.0475 27.4231 49.584 31.1324 49.584 35.0002C49.584 38.8679 48.0475 42.5772 45.3126 45.3121C42.5777 48.047 38.8684 49.5835 35.0007 49.5835C31.1329 49.5835 27.4236 48.047 24.6887 45.3121C21.9538 42.5772 20.4173 38.8679 20.4173 35.0002C20.4173 31.1324 21.9538 27.4231 24.6887 24.6882C27.4236 21.9533 31.1329 20.4168 35.0007 20.4168ZM53.959 19.6877C53.959 20.6546 53.5749 21.5819 52.8911 22.2657C52.2074 22.9494 51.2801 23.3335 50.3132 23.3335C49.3462 23.3335 48.4189 22.9494 47.7352 22.2657C47.0514 21.5819 46.6673 20.6546 46.6673 19.6877C46.6673 18.7207 47.0514 17.7934 47.7352 17.1097C48.4189 16.4259 49.3462 16.0418 50.3132 16.0418C51.2801 16.0418 52.2074 16.4259 52.8911 17.1097C53.5749 17.7934 53.959 18.7207 53.959 19.6877ZM35.0007 11.6668C27.7848 11.6668 26.6065 11.6872 23.2494 11.836C20.9627 11.9439 19.4286 12.2502 18.0052 12.8043C16.8141 13.2416 15.7373 13.9426 14.8552 14.8547C13.9423 15.7367 13.2404 16.8135 12.8019 18.0047C12.2477 19.4339 11.9415 20.9652 11.8365 23.2489C11.6848 26.4689 11.6673 27.5947 11.6673 35.0002C11.6673 42.216 11.6877 43.3943 11.8365 46.7514C11.9444 49.0352 12.2507 50.5722 12.8019 51.9927C13.2977 53.2614 13.8811 54.1743 14.8494 55.1427C15.8323 56.1227 16.7452 56.7089 17.9994 57.1931C19.4402 57.7502 20.9744 58.0593 23.2494 58.1643C26.4694 58.316 27.5952 58.3335 35.0007 58.3335C42.2165 58.3335 43.3948 58.3131 46.7519 58.1643C49.0327 58.0564 50.5698 57.7502 51.9932 57.1989C53.1825 56.7594 54.2587 56.0599 55.1432 55.1514C56.1261 54.1685 56.7123 53.2556 57.1965 52.0014C57.7507 50.5635 58.0598 49.0264 58.1648 46.7514C58.3165 43.5314 58.334 42.4056 58.334 35.0002C58.334 27.7843 58.3136 26.606 58.1648 23.2489C58.0569 20.9681 57.7507 19.4281 57.1965 18.0047C56.757 16.8147 56.0564 15.7383 55.1461 14.8547C54.2645 13.9414 53.1876 13.2394 51.9961 12.8014C50.5669 12.2472 49.0327 11.941 46.7519 11.836C43.5319 11.6843 42.4061 11.6668 35.0007 11.6668ZM35.0007 5.8335C42.9252 5.8335 43.914 5.86266 47.0232 6.0085C50.1294 6.15433 52.244 6.64141 54.1048 7.36475C56.0298 8.10558 57.6515 9.10891 59.2732 10.7277C60.7577 12.186 61.904 13.9506 62.6361 15.896C63.3565 17.7539 63.8465 19.8714 63.9923 22.9777C64.1294 26.0868 64.1673 27.0756 64.1673 35.0002C64.1673 42.9247 64.1382 43.9135 63.9923 47.0227C63.8465 50.1289 63.3565 52.2435 62.6361 54.1043C61.906 56.052 60.7581 57.8161 59.2732 59.2727C57.8148 60.7543 56.0502 61.9035 54.1048 62.6356C52.2469 63.356 50.1294 63.846 47.0232 63.9918C43.914 64.1289 42.9252 64.1668 35.0007 64.1668C27.0761 64.1668 26.0873 64.1377 22.9782 63.9918C19.8719 63.846 17.7573 63.356 15.8965 62.6356C13.9491 61.9049 12.1851 60.7571 10.7282 59.2727C9.24475 57.8149 8.09712 56.0511 7.36523 54.1043C6.6419 52.2464 6.15482 50.1289 6.00898 47.0227C5.8719 43.9135 5.83398 42.9247 5.83398 35.0002C5.83398 27.0756 5.86315 26.0868 6.00898 22.9777C6.15482 19.8685 6.6419 17.7568 7.36523 15.896C8.09509 13.9482 9.243 12.184 10.7282 10.7277C12.1855 9.24375 13.9494 8.09604 15.8965 7.36475C17.7573 6.64141 19.869 6.15433 22.9782 6.0085C26.0873 5.87141 27.0761 5.8335 35.0007 5.8335Z" fill="#7F7A63"/>
</g>
</svg>
