<svg width="70" height="70" viewBox="0 0 70 70" fill="none" xmlns="http://www.w3.org/2000/svg">
<g style="mix-blend-mode:color-burn">
<path d="M58.334 35.0002C58.3334 29.7994 56.5954 24.7479 53.3958 20.6478C50.1963 16.5477 45.7186 13.6341 40.6739 12.3696C35.6292 11.105 30.3067 11.5621 25.5515 13.6683C20.7962 15.7744 16.881 19.4088 14.4273 23.9944C11.9737 28.58 11.1224 33.8538 12.0085 38.9785C12.8947 44.1033 15.4676 48.785 19.3186 52.2804C23.1696 55.7757 28.078 57.8843 33.2644 58.2713C38.4507 58.6583 43.6177 57.3015 47.9448 54.4164L51.1823 59.2697C46.3938 62.4714 40.7609 64.1761 35.0007 64.1668C18.8919 64.1668 5.83398 51.1089 5.83398 35.0002C5.83398 18.8914 18.8919 5.8335 35.0007 5.8335C51.1094 5.8335 64.1673 18.8914 64.1673 35.0002V39.3752C64.1676 41.559 63.4676 43.6854 62.17 45.442C60.8725 47.1986 59.0458 48.4927 56.9583 49.1344C54.8709 49.776 52.6326 49.7313 50.5724 49.0069C48.5123 48.2824 46.7387 46.9163 45.5123 45.1093C43.5657 47.1335 41.0759 48.5525 38.3423 49.1959C35.6087 49.8394 32.7474 49.6798 30.1023 48.7364C27.4572 47.793 25.1407 46.106 23.4311 43.878C21.7216 41.6499 20.6917 38.9756 20.4653 36.1765C20.2388 33.3773 20.8254 30.5722 22.1546 28.0984C23.4837 25.6245 25.4989 23.587 27.958 22.2307C30.4171 20.8744 33.2155 20.257 36.017 20.4526C38.8185 20.6482 41.5039 21.6486 43.7507 23.3335H49.584V39.3752C49.584 40.5355 50.0449 41.6483 50.8654 42.4688C51.6859 43.2892 52.7987 43.7502 53.959 43.7502C55.1193 43.7502 56.2321 43.2892 57.0526 42.4688C57.873 41.6483 58.334 40.5355 58.334 39.3752V35.0002ZM35.0007 26.2502C32.68 26.2502 30.4544 27.172 28.8135 28.813C27.1725 30.4539 26.2507 32.6795 26.2507 35.0002C26.2507 37.3208 27.1725 39.5464 28.8135 41.1873C30.4544 42.8283 32.68 43.7502 35.0007 43.7502C37.3213 43.7502 39.5469 42.8283 41.1878 41.1873C42.8288 39.5464 43.7507 37.3208 43.7507 35.0002C43.7507 32.6795 42.8288 30.4539 41.1878 28.813C39.5469 27.172 37.3213 26.2502 35.0007 26.2502Z" fill="#7F7A63"/>
</g>
</svg>
